<!--?xml version="1.0" encoding="utf-8"?-->
<!-- Svg Vector Icons : http://www.onlinewebfonts.com/icon -->

<svg version="1.1" xmlns="http://www.w3.org/2000/svg" xmlns:xlink="http://www.w3.org/1999/xlink" x="0px" y="0px" viewBox="0 0 256 256" enable-background="new 0 0 256 256" xml:space="preserve">
<metadata> Svg Vector Icons : http://www.onlinewebfonts.com/icon </metadata>
<g><g><path fill="#ffffff" data-title="Layer 0" xs="0" d="M143.8,161.5c-12.6,0-25.3-4.8-34.9-14.4c-2.6-2.6-2.6-6.9,0-9.5s6.9-2.6,9.5,0c14,14,36.8,14,50.8,0l48.7-48.7c14-14,14-36.8,0-50.8c-14-14-36.8-14-50.8,0L126,79.2c-2.6,2.6-6.9,2.6-9.5,0c-2.6-2.6-2.6-6.9,0-9.5l41.1-41.1c19.2-19.2,50.5-19.2,69.7,0c19.2,19.2,19.2,50.5,0,69.7L178.7,147C169.1,156.7,156.5,161.5,143.8,161.5L143.8,161.5L143.8,161.5z M63.5,241.8c-12.6,0-25.3-4.8-34.9-14.4c-19.2-19.2-19.2-50.5,0-69.7L77.3,109c19.2-19.2,50.5-19.2,69.7,0c2.6,2.6,2.6,6.9,0,9.5c-2.6,2.6-6.9,2.6-9.5,0c-14-14-36.8-14-50.8,0l-48.7,48.7c-14,14-14,36.8,0,50.8c14,14,36.8,14,50.8,0l41.1-41.1c2.6-2.6,6.9-2.6,9.5,0c2.6,2.6,2.6,6.9,0,9.5l-41.1,41.1C88.7,237,76.1,241.8,63.5,241.8L63.5,241.8L63.5,241.8z"/><path fill="#ffffff" data-title="Layer 1" xs="1" d="M63.5,246L63.5,246c-14.3,0-27.7-5.6-37.8-15.7C15.6,220.3,10,206.8,10,192.5c0-14.3,5.6-27.7,15.7-37.8L74.3,106c10.1-10.1,23.5-15.7,37.8-15.7c14.3,0,27.7,5.6,37.8,15.7c4.2,4.2,4.2,11.1,0,15.4c-2,2-4.8,3.2-7.7,3.2s-5.6-1.1-7.7-3.2c-6-6-14-9.3-22.4-9.3c-8.5,0-16.5,3.3-22.4,9.3L41,170.1c-6,6-9.3,14-9.3,22.4S35,209,41,215c6,6,14,9.3,22.4,9.3c8.5,0,16.5-3.3,22.4-9.3l41.1-41.1c2-2,4.8-3.2,7.7-3.2c2.9,0,5.6,1.1,7.7,3.2c2,2,3.2,4.8,3.2,7.7c0,2.9-1.1,5.6-3.2,7.7l-41.1,41.1C91.2,240.4,77.8,246,63.5,246L63.5,246z M112.2,98.7c-12.1,0-23.4,4.7-31.9,13.2l-48.7,48.7c-8.5,8.5-13.2,19.8-13.2,31.9s4.7,23.4,13.2,31.9c8.5,8.5,19.8,13.2,31.9,13.2s23.4-4.7,31.9-13.2l41.1-41.1c0.5-0.5,0.7-1.1,0.7-1.8s-0.3-1.3-0.7-1.8c-0.5-0.5-1.1-0.7-1.8-0.7c-0.7,0-1.3,0.3-1.8,0.7l-41.1,41.1c-7.6,7.6-17.6,11.7-28.3,11.7c-10.7,0-20.8-4.2-28.3-11.7c-7.6-7.6-11.8-17.6-11.8-28.3c0-10.7,4.2-20.8,11.7-28.3l48.7-48.7c7.6-7.6,17.6-11.7,28.3-11.7s20.8,4.2,28.3,11.7c0.5,0.5,1.1,0.7,1.8,0.7s1.3-0.3,1.8-0.7c1-1,1-2.6,0-3.6C135.6,103.4,124.2,98.7,112.2,98.7z M143.8,165.6L143.8,165.6c-14.3,0-27.7-5.6-37.8-15.7c-2-2-3.2-4.8-3.2-7.7c0-2.9,1.1-5.6,3.2-7.7c2-2,4.8-3.2,7.7-3.2c2.9,0,5.6,1.1,7.7,3.2c6,6,14,9.3,22.4,9.3c8.5,0,16.5-3.3,22.4-9.3L215,85.9c6-6,9.3-14,9.3-22.4C224.3,55,221,47,215,41c-6-6-14-9.3-22.4-9.3c-8.5,0-16.5,3.3-22.4,9.3L129,82.1c-2,2-4.8,3.2-7.7,3.2c-2.9,0-5.6-1.1-7.7-3.2c-4.2-4.2-4.2-11.1,0-15.4l41.1-41.1C164.8,15.6,178.2,10,192.5,10s27.7,5.6,37.8,15.7C240.4,35.7,246,49.2,246,63.5c0,14.3-5.6,27.7-15.7,37.8L181.7,150C171.6,160.1,158.2,165.6,143.8,165.6L143.8,165.6z M113.7,139.8c-0.7,0-1.3,0.3-1.8,0.7c-0.5,0.5-0.7,1.1-0.7,1.8s0.3,1.3,0.7,1.8c8.5,8.5,19.8,13.2,31.9,13.2c12.1,0,23.4-4.7,31.9-13.2l48.7-48.7c8.5-8.5,13.2-19.8,13.2-31.9s-4.7-23.4-13.2-31.9c-8.5-8.5-19.8-13.2-31.9-13.2s-23.4,4.7-31.9,13.2l-41.1,41.1c-1,1-1,2.6,0,3.6c0.5,0.5,1.1,0.7,1.8,0.7c0.7,0,1.3-0.3,1.8-0.7l41.1-41.1c7.6-7.6,17.6-11.7,28.3-11.7c10.7,0,20.8,4.2,28.3,11.7c7.6,7.6,11.7,17.6,11.7,28.3c0,10.7-4.2,20.8-11.7,28.3l-48.7,48.7c-7.6,7.6-17.6,11.7-28.3,11.7s-20.8-4.2-28.3-11.7C115,140,114.4,139.8,113.7,139.8z"/></g></g>
</svg>