<?xml version="1.0" encoding="utf-8"?>
<!-- Svg Vector Icons : http://www.onlinewebfonts.com/icon -->
<!DOCTYPE svg PUBLIC "-//W3C//DTD SVG 1.1//EN" "http://www.w3.org/Graphics/SVG/1.1/DTD/svg11.dtd">
<svg version="1.1" xmlns="http://www.w3.org/2000/svg" xmlns:xlink="http://www.w3.org/1999/xlink" x="0px" y="0px" viewBox="0 0 256 256" enable-background="new 0 0 256 256" xml:space="preserve">
<metadata> Svg Vector Icons : http://www.onlinewebfonts.com/icon </metadata>
<g><g><g><path fill="#000000" d="M70.8,245.3c25-5.3,42.6-24.4,42.9-44.8c0.2-0.9,0.3-1.8,0.3-2.7V65.8l100.4-21.2v89.6c-8.9-2.6-19.1-3.1-29.4-0.9c-28.2,6-47.1,29.7-42.2,52.9c4.9,23.2,31.8,37.2,60,31.2c25-5.3,42.6-24.4,42.9-44.8c0.2-0.9,0.3-1.8,0.3-2.7V25.1c0,0,0,0,0,0c0-0.5-0.1-1-0.1-1.5c0-0.6-0.1-1.2-0.2-1.7v0c0-0.2-0.1-0.3-0.1-0.5c-0.2-0.9-0.5-1.7-0.8-2.5c-0.2-0.4-0.4-0.7-0.6-1.1c-0.3-0.5-0.5-1.1-0.9-1.6c-0.3-0.4-0.7-0.8-1-1.2c-0.3-0.4-0.6-0.8-1-1.2c-0.3-0.3-0.7-0.6-1.1-0.9c-0.4-0.3-0.8-0.7-1.3-1c-0.4-0.2-0.8-0.4-1.2-0.6c-0.5-0.3-1-0.6-1.5-0.8c-0.5-0.2-1-0.3-1.5-0.5c-0.5-0.1-0.9-0.3-1.4-0.4c-0.8-0.2-1.6-0.2-2.4-0.2c-0.2,0-0.4-0.1-0.7-0.1h0c-0.6,0-1.1,0.1-1.7,0.2c-0.5,0-1.1,0.1-1.5,0.2h0L94.8,37.5c-7.3,1.5-12.6,8-12.6,15.5v109.2c-8.9-2.6-19-3.1-29.3-0.9c-28.2,6-47.1,29.6-42.1,52.9C15.7,237.3,42.6,251.3,70.8,245.3z"/></g><g></g><g></g><g></g><g></g><g></g><g></g><g></g><g></g><g></g><g></g><g></g><g></g><g></g><g></g><g></g></g></g>
</svg>