<?xml version="1.0" encoding="utf-8"?>
<!-- Generator: Adobe Illustrator 19.0.0, SVG Export Plug-In . SVG Version: 6.00 Build 0)  -->
<svg version="1.1" id="Layer_1" xmlns="http://www.w3.org/2000/svg" xmlns:xlink="http://www.w3.org/1999/xlink" x="0px" y="0px"
	 viewBox="0 0 512 512" style="enable-background:new 0 0 512 512;" xml:space="preserve">
<g id="XMLID_2_">
	<path id="XMLID_8_" d="M384,0H128C99.8,0,76.8,23,76.8,51.2v409.6c0,28.2,23,51.2,51.2,51.2h256c28.2,0,51.2-23,51.2-51.2V51.2
		C435.2,23,412.2,0,384,0z M256,51.2c28.2,0,51.2,23,51.2,51.2s-23,51.2-51.2,51.2s-51.2-23-51.2-51.2S227.8,51.2,256,51.2z
		 M256,460.8c-70.8,0-128-57.2-128-128s57.2-128,128-128s128,57.2,128,128S326.8,460.8,256,460.8z M256,256
		c-42.7,0-76.8,34.1-76.8,76.8s34.1,76.8,76.8,76.8s76.8-34.1,76.8-76.8S298.7,256,256,256z"/>
</g>
</svg>
